<svg width="120" height="120" fill="none" xmlns="http://www.w3.org/2000/svg"><mask id="a" style="mask-type:alpha" maskUnits="userSpaceOnUse" x="0" y="0" width="120" height="120"><circle cx="60" cy="60" r="60" fill="#D9D9D9"/></mask><g mask="url(#a)"><circle cx="60" cy="60" r="60" fill="url(#z6i2ddci0b)"/><path fill-rule="evenodd" clip-rule="evenodd" d="M115.297 53.9c.463-2.898.703-5.871.703-8.9 0-30.928-25.072-56-56-56S4 14.072 4 45c0 3.029.24 6.002.703 8.9C8.967 27.202 32.101 6.8 60 6.8c27.9 0 51.033 20.402 55.297 47.1z" fill="url(#gd3xe6tqac)"/><path fill-rule="evenodd" clip-rule="evenodd" d="M2.648 67A54.537 54.537 0 002 75.4c0 30.928 25.968 56 58 56s58-25.072 58-56c0-2.855-.221-5.66-.648-8.4-4.198 26.943-28.276 47.6-57.352 47.6-29.076 0-53.154-20.657-57.352-47.6z" fill="url(#vsa4421t8d)"/><path d="M97 13l-37.5 6.5" stroke="url(#q8wtftaybe)" stroke-width="2" stroke-linejoin="round"/></g><circle cx="60" cy="60" r="59" stroke="url(#oboe6z2y9f)" stroke-width="2"/><path opacity=".9" d="M32 113c-12.703 0-23-2.462-23-5.5s10.297-5.5 23-5.5 23 2.462 23 5.5-10.297 5.5-23 5.5z" fill="url(#20488gt9tg)"/><path fill-rule="evenodd" clip-rule="evenodd" d="M52.916 20.818c-2.958 5.481-4.896 12.333-5.758 16.966-.218 1.17-1.28 1.93-2.372 1.697-1.092-.233-1.801-1.372-1.583-2.543.917-4.928 2.975-12.268 6.222-18.285 3.159-5.853 7.97-11.367 14.58-10.613 3.434.392 5.863 2.56 7.476 5.464 1.575 2.838 2.44 6.472 2.883 10.217.888 7.513.158 16.216-.772 21.933-.19 1.176-1.235 1.963-2.333 1.758-1.097-.205-1.831-1.325-1.64-2.5.89-5.477 1.563-13.715.743-20.647-.41-3.477-1.177-6.442-2.347-8.55-1.132-2.039-2.562-3.162-4.437-3.376-4.008-.457-7.614 2.832-10.662 8.48z" fill="#3E6090"/><path fill-rule="evenodd" clip-rule="evenodd" d="M63.668 12.35a6.11 6.11 0 00-1.62-.5c-5.224-.852-8.934 4.46-11.337 10.127-2.387 5.632-3.88 12.492-4.564 17.282a1.893 1.893 0 01-1.361.223c-1.092-.234-1.801-1.373-1.583-2.543.917-4.929 2.975-12.269 6.222-18.286 3.159-5.851 7.969-11.367 14.58-10.613 3.434.392 5.863 2.56 7.476 5.465 1.575 2.837 2.44 6.471 2.883 10.217.888 7.513.158 16.215-.772 21.932-.19 1.176-1.235 1.964-2.332 1.759a1.946 1.946 0 01-.896-.426c.446-4.602.717-10.614.367-16.322-.014-2.177-.126-4.346-.369-6.4-.41-3.477-1.177-6.442-2.347-8.549-1.114-2.007-2.517-3.126-4.347-3.365z" fill="url(#fyo2z3l8lh)"/><path fill-rule="evenodd" clip-rule="evenodd" d="M43.633 17.002c-3.383 5.216-7.447 15.902-8.67 20.46-.31 1.151-1.43 1.815-2.502 1.483-1.072-.332-1.69-1.535-1.381-2.687 1.302-4.847 5.524-16.01 9.238-21.737 3.611-5.568 8.846-10.652 15.388-9.3 3.398.701 5.653 3.089 7.035 6.14 1.35 2.981 1.93 6.695 2.078 10.481.297 7.596-1.113 16.236-2.49 21.871-.282 1.16-1.387 1.853-2.466 1.549-1.08-.304-1.725-1.49-1.442-2.65 1.318-5.398 2.635-13.578 2.36-20.587-.138-3.516-.67-6.55-1.673-8.764-.97-2.143-2.31-3.395-4.166-3.778-3.965-.82-7.823 2.146-11.309 7.52z" fill="#3E6091"/><path fill-rule="evenodd" clip-rule="evenodd" d="M54.997 9.495a6.537 6.537 0 00-1.43-.529c-5.26-1.275-9.468 3.523-12.373 8.78-2.522 4.565-6.063 15.262-7.733 21.232-.32.078-.662.072-1-.033-1.072-.332-1.69-1.535-1.381-2.687 1.302-4.847 5.524-16.01 9.238-21.737 3.612-5.568 8.846-10.652 15.388-9.3 3.398.701 5.653 3.089 7.035 6.14 1.35 2.981 1.93 6.695 2.078 10.481.297 7.596-1.113 16.236-2.49 21.871-.282 1.16-1.387 1.853-2.466 1.549a1.98 1.98 0 01-.898-.545c1.016-5.817 2.124-14.248 1.93-20.061a50.796 50.796 0 00-.088-1.748c-.006-.296-.014-.59-.026-.883-.138-3.516-.67-6.55-1.673-8.764-.961-2.122-2.284-3.37-4.11-3.766z" fill="url(#u01o9njqli)"/><path opacity=".9" d="M83.995 118.998c-12.7 0-22.995-1.79-22.995-3.999S71.295 111 83.995 111c12.7 0 22.995 1.79 22.995 3.999s-10.295 3.999-22.995 3.999z" fill="url(#jgr1ce3j2j)"/><path d="M13.5 105.5l1-3.5 46 5.5L107 106l1 4-28 7-66.5-11.5z" fill="#111D33"/><path fill-rule="evenodd" clip-rule="evenodd" d="M77.088 20.128L32.68 33.977a.992.992 0 01-.514.023l-1.936.6-5.403 1.674c-3.052.959-3.149 1.052-3.547 3.93-.294 2.173-8.28 63.923-8.28 63.923l66.923 11.574 29.005-7.211S97.095 28.48 97.019 27.93c-.075-.549-.555-.853-.953-.886-.395-.034-8.133-.151-8.133-.151s-6.472-6.285-7.112-6.924c-.639-.64-1.887-.447-2.373-.302-.003.002-.399.125-1.117.347a.996.996 0 01-.243.113z" fill="url(#dbwnhtuiok)"/><path opacity=".5" fill-rule="evenodd" clip-rule="evenodd" d="M77.088 20.128L32.68 33.977a.992.992 0 01-.514.023l-1.936.6-5.403 1.674c-3.052.959-3.149 1.052-3.547 3.93-.294 2.173-8.28 63.923-8.28 63.923l66.923 11.574 29.005-7.211S97.095 28.48 97.019 27.93c-.075-.549-.555-.853-.953-.886-.395-.034-8.133-.151-8.133-.151s-6.472-6.285-7.112-6.924c-.639-.64-1.887-.447-2.373-.302-.003.002-.399.125-1.117.347a.996.996 0 01-.243.113z" fill="url(#mhd4xi50zl)"/><path opacity=".8" fill-rule="evenodd" clip-rule="evenodd" d="M32.681 33.976l44.407-13.848a.996.996 0 00.243-.113c.718-.223 1.114-.345 1.117-.347.486-.145 1.734-.338 2.374.302.372.372 2.72 2.656 4.617 4.501C58.431 33.251 39 57.706 39 86.5a62.813 62.813 0 004.29 22.866L13 104.128s7.986-61.751 8.281-63.925c.398-2.878.495-2.971 3.547-3.93l.5-.153h.002c1.03-.313 3.563-1.083 6.897-2.11a.997.997 0 00.454-.034z" fill="url(#y3xbc0joim)"/><path opacity=".7" d="M78.5 49.5L63 44h-7.5L44 48.5 37 57l8.5 13 6 17.5-11 5.5 38 13.5v-57z" fill="url(#gxtg0622on)"/><path d="M62.982 44.037L59.923 55.48s-3.412-1.553-7.456-1.298c-5.931.375-5.995 4.116-5.934 5.055.323 5.118 13.787 6.235 14.543 18.224.594 9.43-5.003 15.882-13.067 16.391-9.68.61-15.009-5.099-15.009-5.099l2.051-8.724s5.364 4.047 9.658 3.776c2.804-.178 3.806-2.459 3.705-4.072-.422-6.676-11.386-6.281-12.079-17.251-.583-9.23 5.48-18.585 18.856-19.428 5.154-.332 7.791.983 7.791.983z" fill="url(#l2of7f39yo)"/><path d="M60.982 43.037L57.923 54.48s-3.412-1.553-7.456-1.298c-5.931.375-5.995 4.116-5.934 5.055.323 5.118 13.787 6.235 14.543 18.224.594 9.43-5.003 15.882-13.067 16.391-9.68.61-15.009-5.099-15.009-5.099l2.051-8.724s5.364 4.047 9.658 3.776c2.804-.178 3.806-2.459 3.705-4.072-.422-6.676-11.386-6.281-12.079-17.251-.583-9.23 5.48-18.585 18.856-19.428 5.154-.332 7.791.983 7.791.983z" fill="url(#w9b3xaakqp)"/><path opacity=".15" fill-rule="evenodd" clip-rule="evenodd" d="M58.255 42.272c-1.26-.213-2.95-.354-5.064-.218-13.376.843-19.439 10.197-18.856 19.428.368 5.816 3.622 8.437 6.662 10.612a65.802 65.802 0 014.148-12.201c-.357-.513-.574-1.057-.612-1.656-.053-.824-.011-3.8 3.998-4.775 2.863-4.708 6.206-8.625 9.724-11.19zM40.258 92.465c-.493-2.444-.759-5.097-.759-7.965 0-.704.016-1.412.047-2.122-3.382-1-6.496-3.349-6.496-3.349L31 87.754s3.24 3.472 9.259 4.711z" fill="#fff"/><path d="M96.143 26.974c-.395-.034-8.133-.151-8.133-.151s-6.472-6.285-7.111-6.924c-.239-.239-.561-.362-.899-.414L80.003 116l29.003-7.208S97.172 28.409 97.096 27.86c-.075-.549-.558-.853-.953-.886z" fill="url(#yueqwtzduq)"/><path opacity=".2" d="M96.143 27.113c-.395-.033-8.133-.15-8.133-.15s-6.472-6.285-7.111-6.925c-.239-.238-.561-.361-.899-.413l.003 96.515 29.003-7.208S97.172 28.549 97.096 28c-.075-.549-.558-.854-.953-.887z" fill="url(#p7kfcd7k8r)"/><path opacity=".2" d="M95 100l-7-73h9l12 81.5-14-8.5z" fill="url(#yisecwz0hs)"/><path d="M96.143 26.974c-.395-.034-8.133-.151-8.133-.151s-6.472-6.285-7.111-6.924c-.239-.239-.561-.362-.899-.414L80.003 116l29.003-7.208S97.172 28.409 97.096 27.86c-.075-.549-.558-.853-.953-.886z" stroke="url(#aagj4es2zt)" stroke-width=".37"/><g filter="url(#91rwe3c4tu)"><circle cx="83.808" cy="111.885" r=".808" fill="url(#x9notw6nfv)"/></g><circle cx="86.5" cy="111.346" r=".808" fill="#162238"/><g filter="url(#x78aybf7bw)"><circle cx="89.192" cy="110.808" r=".808" fill="url(#vakib8srhx)"/></g><path d="M22.5 37l57.113-17.382a.3.3 0 01.387.287V115.5" stroke="url(#cu6e26nz9y)" stroke-width=".508" stroke-linecap="round"/><path d="M60.5 19.32l-13.923 2.086L24.092 45.19 35 60" stroke="#F44881" stroke-width="2" stroke-linejoin="round"/><circle cx="46.5" cy="21.5" r="2.5" transform="rotate(90 46.5 21.5)" fill="url(#tiw0x6iywz)"/><circle cx="24.5" cy="45.5" r="2.5" transform="rotate(90 24.5 45.5)" fill="url(#czg9nlnzaA)"/><circle cx="35" cy="60" r="9" transform="rotate(90 35 60)" fill="url(#4iv9ls8i3B)" style="mix-blend-mode:lighten"/><circle cx="35.226" cy="60.226" r="2.521" transform="rotate(111.026 35.226 60.226)" fill="url(#qyhgxssjpC)"/><defs><linearGradient id="q8wtftaybe" x1="64.845" y1="19.158" x2="86.658" y2="16.504" gradientUnits="userSpaceOnUse"><stop stop-color="#F44881"/><stop offset="1" stop-color="#F44881" stop-opacity="0"/></linearGradient><linearGradient id="oboe6z2y9f" x1="-25.227" y1="22.708" x2="4.038" y2="134.632" gradientUnits="userSpaceOnUse"><stop stop-color="#FF5E92"/><stop offset="1" stop-color="#ED4653"/></linearGradient><linearGradient id="fyo2z3l8lh" x1="58.965" y1="7.971" x2="65.982" y2="31.814" gradientUnits="userSpaceOnUse"><stop stop-color="#5487C2"/><stop offset="1" stop-color="#4777AF" stop-opacity="0"/></linearGradient><linearGradient id="u01o9njqli" x1="24.067" y1="6.192" x2="32.846" y2="46.094" gradientUnits="userSpaceOnUse"><stop stop-color="#7AAAEE"/><stop offset="1" stop-color="#385076"/></linearGradient><linearGradient id="y3xbc0joim" x1="21.5" y1="37.5" x2="51" y2="75.5" gradientUnits="userSpaceOnUse"><stop stop-color="#5B7FAF"/><stop offset="1" stop-color="#6BA1E3" stop-opacity="0"/></linearGradient><linearGradient id="gxtg0622on" x1="42" y1="62.5" x2="74" y2="70.5" gradientUnits="userSpaceOnUse"><stop stop-color="#33426F"/><stop offset="1" stop-color="#35406D" stop-opacity="0"/></linearGradient><linearGradient id="l2of7f39yo" x1="48" y1="21.5" x2="49.5" y2="110" gradientUnits="userSpaceOnUse"><stop stop-color="#3B5FA5"/><stop offset="1" stop-color="#222139"/></linearGradient><linearGradient id="w9b3xaakqp" x1="19" y1="46" x2="15" y2="127" gradientUnits="userSpaceOnUse"><stop stop-color="#fff"/><stop offset="1" stop-color="#C42E6C"/></linearGradient><linearGradient id="yueqwtzduq" x1="66.024" y1="57.128" x2="66.024" y2="149.775" gradientUnits="userSpaceOnUse"><stop stop-color="#2B436F"/><stop offset="1"/></linearGradient><linearGradient id="aagj4es2zt" x1="82.357" y1="19.534" x2="100.97" y2="50.417" gradientUnits="userSpaceOnUse"><stop stop-color="#375289"/><stop offset="1" stop-color="#314B7B" stop-opacity="0"/></linearGradient><linearGradient id="x9notw6nfv" x1="82.356" y1="111.885" x2="82.356" y2="114.789" gradientUnits="userSpaceOnUse"><stop stop-color="#fff"/><stop offset="1" stop-color="#C42E6C"/></linearGradient><linearGradient id="vakib8srhx" x1="87.74" y1="110.808" x2="87.74" y2="113.712" gradientUnits="userSpaceOnUse"><stop stop-color="#fff"/><stop offset="1" stop-color="#C42E6C"/></linearGradient><linearGradient id="cu6e26nz9y" x1="72.727" y1="20.909" x2="35.273" y2="54.909" gradientUnits="userSpaceOnUse"><stop stop-color="#6F98CD"/><stop offset="1" stop-color="#5A7DAB" stop-opacity="0"/></linearGradient><linearGradient id="tiw0x6iywz" x1="52.005" y1="16.43" x2="37.905" y2="7.87" gradientUnits="userSpaceOnUse"><stop stop-color="#DD1E5B"/><stop offset="1" stop-color="#EFC7D8"/></linearGradient><linearGradient id="czg9nlnzaA" x1="30.005" y1="40.43" x2="15.905" y2="31.87" gradientUnits="userSpaceOnUse"><stop stop-color="#DD1E5B"/><stop offset="1" stop-color="#EFC7D8"/></linearGradient><linearGradient id="qyhgxssjpC" x1="34.525" y1="55.665" x2="30.445" y2="60.183" gradientUnits="userSpaceOnUse"><stop stop-color="#FB3B78"/><stop offset="1" stop-color="#EFC7D8"/></linearGradient><radialGradient id="z6i2ddci0b" cx="0" cy="0" r="1" gradientUnits="userSpaceOnUse" gradientTransform="matrix(0 120 -120 0 60 0)"><stop stop-color="#263A5E"/><stop offset="1" stop-color="#0C1321"/></radialGradient><radialGradient id="gd3xe6tqac" cx="0" cy="0" r="1" gradientUnits="userSpaceOnUse" gradientTransform="matrix(6.83333 51.2783 -89.16151 11.88164 34.5 4)"><stop stop-color="#71A3EC"/><stop offset="1" stop-color="#152747"/></radialGradient><radialGradient id="vsa4421t8d" cx="0" cy="0" r="1" gradientUnits="userSpaceOnUse" gradientTransform="matrix(0 28.5 -99.3033 0 62.5 83.5)"><stop stop-color="#71A3EC"/><stop offset="1" stop-color="#152747"/></radialGradient><radialGradient id="20488gt9tg" cx="0" cy="0" r="1" gradientUnits="userSpaceOnUse" gradientTransform="matrix(0 5.5 -23 0 32 107.5)"><stop stop-color="#131D30"/><stop offset="1" stop-color="#141F34" stop-opacity="0"/></radialGradient><radialGradient id="jgr1ce3j2j" cx="0" cy="0" r="1" gradientUnits="userSpaceOnUse" gradientTransform="matrix(0 3.9991 -22.9949 0 83.995 114.999)"><stop stop-color="#131D30"/><stop offset="1" stop-color="#141F34" stop-opacity="0"/></radialGradient><radialGradient id="dbwnhtuiok" cx="0" cy="0" r="1" gradientUnits="userSpaceOnUse" gradientTransform="matrix(-33.46371 167.49996 -147.81692 -29.53137 60.964 7)"><stop stop-color="#6BA0E2"/><stop offset=".305" stop-color="#54729A"/><stop offset=".526" stop-color="#385076"/><stop offset="1" stop-color="#131E32"/></radialGradient><radialGradient id="mhd4xi50zl" cx="0" cy="0" r="1" gradientUnits="userSpaceOnUse" gradientTransform="matrix(24.49998 -60.5 94.11111 38.11109 78 128.5)"><stop stop-color="#D12A6F"/><stop offset="1" stop-color="#83234B" stop-opacity=".01"/></radialGradient><radialGradient id="p7kfcd7k8r" cx="0" cy="0" r="1" gradientUnits="userSpaceOnUse" gradientTransform="matrix(26.5 -81.50004 43.9784 14.29972 80 118.5)"><stop stop-color="#D12A6F"/><stop offset="1" stop-color="#83234B" stop-opacity=".01"/></radialGradient><radialGradient id="yisecwz0hs" cx="0" cy="0" r="1" gradientUnits="userSpaceOnUse" gradientTransform="rotate(108.687 35.38 48.86) scale(35.8922 63.6839)"><stop stop-color="#5B7FAF"/><stop offset="1" stop-color="#6BA1E3" stop-opacity="0"/></radialGradient><radialGradient id="4iv9ls8i3B" cx="0" cy="0" r="1" gradientUnits="userSpaceOnUse" gradientTransform="matrix(9 0 0 9 35 60)"><stop stop-color="#C42E6C"/><stop offset="1" stop-color="#621736" stop-opacity=".01"/></radialGradient><filter id="91rwe3c4tu" x="81.923" y="110" width="3.769" height="3.769" filterUnits="userSpaceOnUse" color-interpolation-filters="sRGB"><feFlood flood-opacity="0" result="BackgroundImageFix"/><feColorMatrix in="SourceAlpha" values="0 0 0 0 0 0 0 0 0 0 0 0 0 0 0 0 0 0 127 0" result="hardAlpha"/><feOffset/><feGaussianBlur stdDeviation=".538"/><feColorMatrix values="0 0 0 0 0.951002 0 0 0 0 0.370525 0 0 0 0 0.610455 0 0 0 1 0"/><feBlend in2="BackgroundImageFix" result="effect1_dropShadow_1044_28294"/><feBlend in="SourceGraphic" in2="effect1_dropShadow_1044_28294" result="shape"/></filter><filter id="x78aybf7bw" x="87.308" y="108.923" width="3.769" height="3.769" filterUnits="userSpaceOnUse" color-interpolation-filters="sRGB"><feFlood flood-opacity="0" result="BackgroundImageFix"/><feColorMatrix in="SourceAlpha" values="0 0 0 0 0 0 0 0 0 0 0 0 0 0 0 0 0 0 127 0" result="hardAlpha"/><feOffset/><feGaussianBlur stdDeviation=".538"/><feColorMatrix values="0 0 0 0 0.951002 0 0 0 0 0.370525 0 0 0 0 0.610455 0 0 0 1 0"/><feBlend in2="BackgroundImageFix" result="effect1_dropShadow_1044_28294"/><feBlend in="SourceGraphic" in2="effect1_dropShadow_1044_28294" result="shape"/></filter></defs></svg>